<?xml version="1.0" encoding="UTF-8"?>
<!DOCTYPE svg PUBLIC "-//W3C//DTD SVG 1.1//EN" "http://www.w3.org/Graphics/SVG/1.1/DTD/svg11.dtd">
<!-- Creator: CorelDRAW -->
<svg xmlns="http://www.w3.org/2000/svg" xml:space="preserve" width="361.548mm" height="106.1mm" version="1.1" style="shape-rendering:geometricPrecision; text-rendering:geometricPrecision; image-rendering:optimizeQuality; fill-rule:evenodd; clip-rule:evenodd"
viewBox="0 0 2886.16 846.97"
 xmlns:xlink="http://www.w3.org/1999/xlink"
 xmlns:xodm="http://www.corel.com/coreldraw/odm/2003">
 <defs>
  <style type="text/css">
   <![CDATA[
    .str0 {stroke:#373535;stroke-width:0.61;stroke-miterlimit:22.9256}
    .fil0 {fill:none;fill-rule:nonzero}
   ]]>
  </style>
 </defs>
 <g id="Camada_x0020_1">
  <metadata id="CorelCorpID_0Corel-Layer"/>
  <g id="_105553219252544">
   <path class="fil0 str0" d="M282.88 367.94c26.04,-22.28 48.49,-36.17 79.12,-42.41l105.9 0c47.26,0 79.83,0.74 126.94,-3.92 9.75,-0.97 14.86,1.51 13.68,7.91 -5.57,24.6 -5.01,38.12 -7.01,58.05 -6.25,62.24 0.34,144.06 11.58,205.57 5.56,30.41 16.27,34.01 -11.23,34.01l-59.17 0c-25.95,-2.3 -33.96,-28.51 -37.11,-61.21 -53.9,44.96 -122.8,71.94 -197.88,71.94 -172.71,0 -307.4,-141.3 -307.4,-317.36 0,-176.06 134.69,-320.21 307.4,-320.21 129.95,0 237.39,80.81 284.6,195.83 10.72,26.12 16.59,37.82 -3.04,44.11l-97.28 22.68c-23.53,3.32 -22.25,-3.49 -23.8,-22.41 -10.95,-110.03 -50.99,-190.06 -160.48,-190.06 -118.77,0 -158.83,131.96 -161.27,268.64 -2.45,136.67 40.92,268.64 161.27,268.64 120.36,0 157.31,-99.61 163.33,-229.35l-106.76 0c-6.52,16.98 -20.69,39.49 -42.25,57.93 -36.27,31.03 -79.73,38.82 -86.5,30.46 -6.77,-8.36 11.08,-47.8 47.35,-78.84zm2285.01 -80.44l0 214.01c2.41,25.01 12.93,51.77 36.11,76.99 4.08,4.44 3.03,9.62 -3.48,9.62l-95.82 0c-6.51,0 -7.56,-5.18 -3.48,-9.62 23.19,-25.22 33.7,-51.98 36.11,-76.99l0 -208.21c-2.41,-25.01 -14.14,-59.43 -51.5,-79.53 -6.08,-3.27 -4.11,-9.62 1.57,-9.62l51.51 0 60.18 0c10,0.42 23.12,6.8 28.56,13.04l187.79 254.36 0 -180.79c-2.41,-25.01 -12.93,-51.77 -36.11,-76.99 -4.08,-4.44 -3.03,-9.62 3.48,-9.62l97.16 0c6.51,0 7.56,5.18 3.48,9.62 -23.19,25.22 -33.7,51.98 -36.11,76.99l0 297.37 -59.39 -0.49 -220.05 -300.13zm-1735.16 300.34c-1.44,0.19 -3.53,0.27 -6.88,0.28l-2.57 0 -7.18 0 -7.18 0 -12.92 0 -80.71 0 -36.5 0 -12.53 0c-6.51,0 -8.06,-5.18 -4.04,-9.62 6.25,-6.79 11.58,-13.69 16.08,-20.64l0.5 -0.77c11.87,-18.61 17.8,-37.55 19.54,-55.57l0 -210.76c-2.41,-25.01 -12.93,-51.77 -36.11,-76.99 -4.08,-4.44 -3.03,-9.62 3.48,-9.62l49.59 0 139.91 0c21.84,0 46.42,2.65 69.18,9.74 41.54,12.92 76.27,40.84 76.27,87.44 0,31.6 -10.85,56.14 -36.01,73.5 -25.11,17.33 -44.14,28.33 -82.52,32.97l0 1.55c18.18,4.28 38.49,7.1 60.82,8.56l55.66 95.45c18.27,27.24 30.62,42.57 45.57,58.77 11.21,12.13 8.63,16.98 -0.51,16.01l-96.77 0c-16.17,-0.73 -24.89,-14.07 -31.08,-26.9l-64.96 -134.46c-3.94,-6.12 -7.74,-16.89 -35.3,-16.89 -7.66,-0.69 -6.61,-11.3 0,-11.75l15.64 0c52.18,0 83.15,-31.89 78.21,-94.99 -3.58,-45.71 -32.75,-73.75 -80.9,-73.75l-31.53 0 0 271.39c0,8.94 0.74,14.21 3.14,23.01 6.15,22.58 17.31,37.66 34.98,54.71 4.02,3.87 3.22,8.59 -2.36,9.34zm975.63 -86.33c-2.41,25.01 -12.9,51.79 -36.11,76.99 -4.25,4.61 -4.18,8.69 -0.02,9.48l0 0.14 1.59 0 51.51 0 114.3 0c6.51,0 7.56,-5.18 3.48,-9.62 -23.19,-25.22 -33.7,-51.98 -36.11,-76.99l0 -272.12 26.71 0c25.59,0 44.44,7.56 56.33,22.77 11.9,15.21 17.95,28.21 17.95,62.18 0,23.86 -3.03,43.53 -8.86,59.11 -5.95,15.58 -13.69,26.96 -23.23,34.34 -9.54,7.29 -19.64,10.93 -30.41,10.93l-14.81 0 -4.27 13.57 20.76 0c35.69,0 65.98,-4.74 90.9,-14.3 24.8,-9.47 43.54,-23.04 56.22,-40.62 12.56,-17.67 18.85,-38.53 18.85,-62.75 0,-21.68 -5.84,-40.89 -17.61,-57.47 -11.67,-16.67 -29.29,-29.69 -52.86,-38.98 -23.56,-9.38 -52.52,-14.02 -86.63,-14.02l-180.3 0c-6.51,0 -7.56,5.18 -3.48,9.62 23.19,25.22 33.7,51.98 36.11,76.99l0 210.76zm-679.02 0c-2.41,25.01 -12.9,51.79 -36.11,76.99 -4,4.35 -4.17,8.22 -0.69,9.31l0 0.31 2.26 0 51.51 0 258.69 0 4.09 -79.12c0.25,-8.42 -8.28,-11.25 -14.21,-5.51 -29.01,19.98 -46.13,37.5 -77.3,48.46 -31.79,11.18 -56.95,9.56 -89.61,9.56 0,-288.62 0,-52.41 0,-331.59l47.26 0c48.52,2.59 72.51,10.87 105.41,52.84 7.52,10.08 16.59,13.74 16.33,-0.97l-1.29 -65.48c-0.8,-7.47 -1.3,-11.47 -10.41,-12.16l-238.98 0 -51.51 0c-6.45,0 -5.72,5.11 -1.57,9.62 23.21,25.2 33.7,51.98 36.11,76.99l0.01 -0 0 210.76zm1178.57 -37.28l-67.42 -191.8 -66.99 180.44 88.87 0c16.26,-0.32 35.38,4.17 45.54,11.36zm166.29 115.28c5.14,2.97 3.91,8.5 -1.81,8.61l-177.1 0c-5.34,0 -6.06,-5.52 -4.23,-9.23 20.26,-13.47 33.69,-22.9 42.2,-42.55 -7.51,-56.43 -45.18,-69.9 -95.57,-69.9l-68.03 0 -6.46 18.91c-11.37,35.45 3.69,66.67 28.04,93.15 4.08,4.44 3.03,9.62 -3.48,9.62l-114.46 0c-6.51,0 -6.09,-5.18 -0.75,-9.62 30.35,-25.22 48.47,-51.98 57.99,-76.99l93.51 -251.25 1.5 -1.44c-0.18,-0.37 -0.37,-0.75 -0.55,-1.12 -5.69,-11.42 -13.44,-22.83 -23.65,-33.93 -4.08,-4.44 -3.03,-9.62 3.48,-9.62l91.45 0c7.26,0.15 10.52,6.13 12.87,11.76l119.23 307.17c13.44,27.67 24.36,43.94 45.83,56.44zm-892.69 14.99c-32.05,0 -99.31,-9.56 -122.43,-31.64l-1.98 -81.66c-0.72,-11.69 13.86,-14.66 17.44,-4.23 8.26,23.69 20.29,46.08 36.98,62.99 30,30.39 87.16,44.23 121.82,13.38 9.82,-8.74 16.17,-20.81 16.17,-36.16 0,-14.3 -3.93,-26.87 -11.67,-37.89 -7.74,-11.02 -17.39,-20.49 -28.73,-28.42 -11.44,-7.92 -27.04,-17.49 -46.68,-28.69l-14.81 -8.56c-18.63,-10.66 -34.11,-20.49 -46.57,-29.51 -12.34,-8.93 -23.11,-20.4 -32.31,-34.43 -9.21,-13.93 -13.81,-30.15 -13.81,-48.63 0,-22.41 6.28,-41.35 19.08,-56.83 12.68,-15.48 30.07,-27.05 52.18,-34.7 22.22,-7.65 47.35,-11.48 75.63,-11.48 17.17,0 34.9,2.28 53.3,6.92 10.6,2.68 20.46,5.71 29.59,9.13 20.26,7.58 16.5,5.5 19.51,26.41l8.84 61.29c2.08,9.19 -11.53,13.54 -14.89,4.68 -11.22,-27.61 -21.58,-48.19 -37.66,-64.72 -19.41,-19.95 -42.19,-29.87 -68.57,-29.87 -17.05,0 -30.63,5.19 -40.73,15.67 -10.1,10.38 -15.15,24.23 -15.15,41.44 0,12.3 3.03,23.04 9.09,32.15 6.06,9.2 13.8,17.12 23.34,23.77 9.54,6.65 21.77,13.93 36.69,21.77l19.3 10.38c21.09,11.02 39.05,21.95 53.97,32.79 14.93,10.84 27.38,24.23 37.48,40.17 10.1,15.94 15.15,34.43 15.15,55.37 0,24.78 -6.51,45.27 -19.63,61.48 -13.02,16.3 -30.75,28.33 -53.19,36.07 -22.44,7.74 -48.14,11.57 -76.75,11.57zm-303.03 -217.85c30.88,-25.97 65.76,-35.07 71.52,-28.07 5.76,7 -7.31,42.58 -38.19,68.54 -30.88,25.97 -67.89,32.48 -73.65,25.49 -5.76,-7 9.43,-39.99 40.31,-65.96z"/>
   <path class="fil0 str0" d="M834.69 801.44l54.85 0c0.43,-1.95 0.57,-3 0.57,-4.94l-14.03 -3c-3.12,-0.6 -4.25,-3.29 -4.25,-6.29l-0.57 -28.15 0 -58.25 10.06 0.3c16.87,0.6 23.39,12.88 23.39,25.76 0,13.48 -5.39,24.71 -21.97,25.46l-3.12 0 0 8.24 9.64 0c25.51,0 42.23,-15.27 42.23,-37.59 0,-22.76 -15.59,-31.9 -36.28,-31.9l-60.52 0c-0.28,1.35 -0.57,2.55 -0.57,4.34l8.5 2.85c2.83,0.9 4.53,3.44 4.53,7.94l0 52.86 -0.42 26.06c0,4.34 -1.42,7.94 -6.24,9.73l-6.38 2.25c0,1.5 0.14,2.85 0.57,4.34zm123.02 1.35c11.34,0 19.28,-7.04 24.66,-14.67 0.85,10.48 4.96,14.67 15.73,14.67 5.81,0 13.04,-3.89 18.85,-9.58l-0.57 -3.89 -9.92 0 -0.99 -28.9 0 -18.27c0,-20.07 -15.31,-24.26 -27.92,-24.26 -14.74,0 -29.05,9.43 -33.87,14.38l2.41 5.69c8.93,-2.25 15.02,-3.14 19.84,-3.14 10.06,0 16.02,3.74 16.02,12.73l0 10.93 -12.75 1.5c-15.59,1.8 -31.18,6.59 -31.18,25.61 0,9.13 6.8,17.22 19.7,17.22zm12.76 -16.47c-4.68,0 -8.93,-2.7 -8.93,-8.69 0,-6.44 6.38,-9.43 13.04,-10.78l7.37 -1.5 0 18.12c-3.83,1.8 -7.09,2.85 -11.48,2.85zm17.57 -81.61c8.93,0 12.75,-9.43 15.45,-16.17l-2.83 -2.99c-1.13,1.5 -2.55,3.14 -7.8,3.14 -3.97,0 -19.42,-5.24 -26.79,-5.24 -7.94,0 -12.19,8.54 -16.87,16.17l2.83 3c2.83,-2.1 4.54,-3.89 7.94,-3.89 4.82,0 22.11,5.99 28.06,5.99zm76.25 98.08c15.59,0 27.78,-7.94 34.58,-18.27l-2.41 -4.34c-10.35,2.4 -17.57,2.85 -22.68,2.85 -14.6,0 -24.24,-7.34 -25.79,-23.51l51.45 0 0 -3.15c0,-19.47 -10.77,-38.93 -33.87,-38.93 -25.09,0 -41.53,23.81 -41.53,46.87 0,25.16 13.75,38.48 40.25,38.48zm-16.58 -51.96c0.71,-15.42 5.67,-23.21 13.89,-23.21 8.22,0 13.18,9.13 13.18,23.21l-27.07 0zm90.28 51.96c14.74,0 35.01,-8.09 35.01,-28.15 0,-26.06 -40.39,-24.41 -40.39,-39.68 0,-3.74 2.69,-8.09 9.78,-8.09 14.74,0 19.13,7.79 21.68,17.07l5.24 0.3 2.41 -19.77c-9.35,-5.24 -16.16,-7.04 -28.91,-7.04 -16.3,0 -31.61,10.93 -31.61,27.1 0,27.7 37.56,26.36 37.56,39.38 0,4.94 -3.83,8.99 -11.06,8.99 -9.92,0 -20.41,-5.99 -23.24,-18.57l-5.67 0 -1.42 21.26c9.92,4.64 18.42,7.19 30.61,7.19zm119.62 0.15c17.01,0 26.64,-7.19 34.58,-17.37l-1.98 -4.34c-8.36,2.25 -13.46,2.85 -21.12,2.85 -12.61,0 -22.96,-10.93 -22.96,-29.95 0,-18.87 6.52,-26.21 17.86,-26.21 6.95,0 12.05,7.49 19.13,18.57 6.38,-3.29 9.21,-7.94 9.21,-14.53 0,-10.03 -14.17,-14.53 -28.49,-14.53 -23.53,0 -41.95,22.76 -41.95,44.18 0,29.65 12.05,41.33 35.72,41.33zm80.93 0c23.95,0 41.53,-23.06 41.53,-44.62 0,-27.55 -13.46,-40.88 -40.25,-40.88 -23.1,0 -40.96,22.76 -40.96,44.32 0,28 14.88,41.18 39.68,41.18zm2.27 -10.03c-13.46,0 -17.01,-16.47 -17.01,-34.59 0,-16.47 4.39,-30.85 15.16,-30.85 12.33,0 15.87,13.78 15.87,35.04 0,15.12 -2.83,30.4 -14.03,30.4zm47.2 8.54l42.09 0c0.71,-1.82 0.85,-3.47 0.85,-4.97l-6.52 -2.85c-1.98,-0.9 -2.27,-3.74 -2.27,-6.76l-0.28 -26.56 0 -22.96c4.25,-1.65 11.34,-2.55 17.43,-2.55 10.2,0 10.35,8.54 10.35,17.55l0 7.96 -0.28 28.68c0,2.25 -0.71,4.34 -2.69,5.39l-4.96 2.4c0,0.9 0.14,2.85 0.57,4.67l40.39 0c0.71,-1.67 0.71,-3.47 0.71,-4.67l-7.65 -2.4c-1.56,-0.45 -1.99,-2.1 -1.99,-4.79l-0.42 -29.28 0 -16.07c0,-15.42 -3.54,-26.8 -25.09,-26.8 -13.04,0 -20.69,8.54 -26.93,14.53l0 -9.13c0,-3.44 -1.42,-5.39 -5.53,-5.39 -6.94,0 -19.28,1.2 -28.63,3.29l0 7.49 11.05 0 0 32.1 -0.43 28.5c0,3.62 -0.71,4.97 -3.4,5.86l-6.8 2.4c0,1.2 0.14,2.85 0.42,4.37l0 0zm133.37 45.22c19.84,0 46.77,-11.38 46.77,-36.54 0,-22.76 -20.41,-23.36 -36.71,-23.36l-20.55 0 0 -11.83c4.68,1.05 9.78,1.5 14.74,1.5 18.71,0 34.3,-15.15 34.3,-33.49 0,-3.14 -0.28,-4.94 -0.99,-7.51l13.89 0 0 -16.95 -18.57 7.79c-6.52,-7.19 -17.57,-8.83 -29.05,-8.83 -17.86,0 -33.31,13.03 -33.31,33.94 0,12.48 6.09,18.92 14.6,22.21 -6.09,6.44 -12.47,13.78 -12.47,22.46 0,5.99 4.53,10.48 10.2,10.48 -6.38,2.85 -16.16,12.13 -16.16,20.07 0,17.67 20.55,20.07 33.31,20.07l0 0zm6.24 -10.33c-13.89,0 -22.68,-5.69 -22.68,-17.97 0,-3.29 2.27,-8.39 3.83,-11.23l23.24 0c9.07,0 13.75,6.44 13.75,13.33 0,7.64 -5.81,15.87 -18.14,15.87zm-2.55 -68.73c-6.8,0 -11.34,-6.31 -11.34,-21.04 0,-11.58 2.83,-20.44 11.34,-20.44 8.22,0 11.34,9.61 11.34,21.79 0,10.83 -3.12,19.69 -11.34,19.69l0 0zm92.97 35.19c15.59,0 27.78,-7.94 34.58,-18.27l-2.41 -4.34c-10.35,2.4 -17.57,2.85 -22.68,2.85 -14.6,0 -24.24,-7.34 -25.79,-23.51l51.45 0 0 -3.15c0,-19.47 -10.77,-38.93 -33.87,-38.93 -25.09,0 -41.53,23.81 -41.53,46.87 0,25.16 13.75,38.48 40.25,38.48zm-16.58 -51.96c0.71,-15.42 5.67,-23.21 13.89,-23.21 8.22,0 13.18,9.13 13.18,23.21l-27.07 0zm59.81 50.61l44.93 0c0.57,-1.65 0.85,-3.74 0.85,-4.94l-9.35 -3.29c-1.98,-0.75 -2.27,-3.29 -2.27,-6.29l-0.14 -26.51 0 -81.16c0,-5.99 -2.83,-7.49 -7.51,-7.49 -6.95,0 -20.41,1.5 -27.78,3.44l0 7.79 11.48 0 0 77.42 -0.42 27.55c0,3.74 -0.85,5.39 -3.4,6.44l-6.95 2.7c0,1.35 0.14,2.55 0.57,4.34l0 0zm72.99 1.35c11.34,0 19.27,-7.04 24.66,-14.67 0.85,10.48 4.96,14.67 15.73,14.67 5.81,0 13.04,-3.89 18.85,-9.58l-0.57 -3.89 -9.92 0 -0.99 -28.9 0 -18.27c0,-20.07 -15.31,-24.26 -27.92,-24.26 -14.74,0 -29.05,9.43 -33.87,14.38l2.41 5.69c8.93,-2.25 15.02,-3.14 19.84,-3.14 10.06,0 16.02,3.74 16.02,12.73l0 10.93 -12.76 1.5c-15.59,1.8 -31.18,6.59 -31.18,25.61 0,9.13 6.8,17.22 19.7,17.22zm12.75 -16.47c-4.68,0 -8.93,-2.7 -8.93,-8.69 0,-6.44 6.38,-9.43 13.04,-10.78l7.37 -1.5 0 18.12c-3.83,1.8 -7.09,2.85 -11.48,2.85zm83.62 16.62c9.64,0 16.3,-5.39 21.68,-12.28 0,5.69 2.83,12.28 10.2,12.28 12.33,0 18.14,-3.44 25.79,-7.79l-1.28 -5.54 -10.21 0 -0.42 -30.55 0 -78.17c0,-7.34 -2.13,-8.83 -8.5,-8.83 -6.94,0 -18.14,1.2 -27.49,3l0 8.39 12.33 0 0 36.09c-2.83,-0.3 -5.81,-0.45 -10.06,-0.45 -23.67,0 -42.09,17.07 -42.09,44.47 0,31 14.31,39.38 30.05,39.38zm11.05 -17.52c-9.21,0 -16.3,-7.49 -16.3,-25.91 0,-23.21 6.24,-30.25 18.28,-30.25 4.11,0 6.38,0.9 9.07,1.8l0 27.85 -0.57 24.56c-3.54,0.9 -6.24,1.95 -10.49,1.95zm93.4 17.52c23.95,0 41.53,-23.06 41.53,-44.62 0,-27.55 -13.46,-40.88 -40.25,-40.88 -23.1,0 -40.96,22.76 -40.96,44.32 0,28 14.88,41.18 39.68,41.18zm2.27 -10.03c-13.46,0 -17.01,-16.47 -17.01,-34.59 0,-16.47 4.39,-30.85 15.17,-30.85 12.33,0 15.87,13.78 15.87,35.04 0,15.12 -2.83,30.4 -14.03,30.4zm78.38 9.88c14.74,0 35.01,-8.09 35.01,-28.15 0,-26.06 -40.39,-24.41 -40.39,-39.68 0,-3.74 2.69,-8.09 9.78,-8.09 14.74,0 19.13,7.79 21.68,17.07l5.24 0.3 2.41 -19.77c-9.35,-5.24 -16.16,-7.04 -28.91,-7.04 -16.3,0 -31.61,10.93 -31.61,27.1 0,27.7 37.56,26.36 37.56,39.38 0,4.94 -3.83,8.99 -11.06,8.99 -9.92,0 -20.41,-5.99 -23.24,-18.57l-5.67 0 -1.42 21.26c9.92,4.64 18.42,7.19 30.61,7.19z"/>
  </g>
 </g>
</svg>
