<?xml version="1.0" encoding="UTF-8"?>
<!DOCTYPE svg PUBLIC "-//W3C//DTD SVG 1.1//EN" "http://www.w3.org/Graphics/SVG/1.1/DTD/svg11.dtd">
<!-- Creator: CorelDRAW -->
<svg xmlns="http://www.w3.org/2000/svg" xml:space="preserve" width="142.548mm" height="16.8001mm" version="1.1" style="shape-rendering:geometricPrecision; text-rendering:geometricPrecision; image-rendering:optimizeQuality; fill-rule:evenodd; clip-rule:evenodd"
viewBox="0 0 523.34 61.68"
 xmlns:xlink="http://www.w3.org/1999/xlink"
 xmlns:xodm="http://www.corel.com/coreldraw/odm/2003">
 <defs>
  <style type="text/css">
   <![CDATA[
    .str0 {stroke:#373535;stroke-width:0.28;stroke-miterlimit:22.9256}
    .fil0 {fill:none;fill-rule:nonzero}
   ]]>
  </style>
 </defs>
 <g id="Camada_x0020_1">
  <metadata id="CorelCorpID_0Corel-Layer"/>
  <path class="fil0 str0" d="M14.16 50.65c7.9,0 16.79,-3.86 16.79,-13.59 0,-12.5 -20.93,-12.67 -20.93,-20.62 0,-4.03 3.54,-5.47 6.65,-5.47 5.56,0 8.94,3.23 10.19,8.12l2.23 0 0 -9.27c-2.78,-1.5 -7.03,-2.76 -12.92,-2.76 -6.87,0 -14.28,6.45 -14.28,14.17 0,13.07 19.46,12.96 19.46,20.68 0,3.46 -4.14,4.9 -6.32,4.9 -6.43,0 -10.36,-2.76 -11.23,-10.25l-2.62 0 -1.04 10.6c3.93,2.53 9.49,3.51 14.01,3.51zm27.58 -0.12c4.36,0 7.41,-2.71 9.49,-5.64 0.33,4.03 1.91,5.64 6.05,5.64 2.23,0 5.02,-1.5 7.25,-3.69l-0.22 -1.5 -3.82 0 -0.38 -11.12 0 -7.03c0,-7.72 -5.89,-9.33 -10.74,-9.33 -5.67,0 -11.18,3.63 -13.03,5.53l0.93 2.19c3.43,-0.86 5.78,-1.21 7.63,-1.21 3.87,0 6.16,1.44 6.16,4.9l0 4.2 -4.91 0.58c-6,0.69 -11.99,2.53 -11.99,9.85 0,3.51 2.62,6.62 7.58,6.62zm4.91 -6.34c-1.8,0 -3.43,-1.04 -3.43,-3.34 0,-2.48 2.45,-3.63 5.02,-4.15l2.84 -0.58 0 6.97c-1.47,0.69 -2.73,1.09 -4.42,1.09zm36.63 6.28c9.7,0 16.9,-7.37 16.9,-17.39 0,-11.35 -4.91,-15.26 -12.21,-15.26 -2.56,0 -5.12,1.21 -6.49,2.19l0.6 2.13c0.87,-0.17 1.69,-0.12 2.4,-0.12 4.36,0 6,5.53 6,11.46 0,5.99 -2.34,12.61 -7.03,12.61 -1.58,0 -2.45,-0.23 -3.33,-0.52l-0.22 -11.87 0 -30.18c0,-2.76 -0.6,-3.4 -3.11,-3.4 -3.38,0 -6.98,0.75 -10.63,1.56l0 2.76 4.69 0 0 29.2 -0.27 14.23c3.16,1.32 7.85,2.59 12.7,2.59zm35.43 0.12c9.21,0 15.97,-8.87 15.97,-17.16 0,-10.6 -5.18,-15.72 -15.48,-15.72 -8.89,0 -15.75,8.75 -15.75,17.05 0,10.77 5.72,15.84 15.26,15.84zm0.87 -3.86c-5.18,0 -6.54,-6.34 -6.54,-13.31 0,-6.34 1.69,-11.87 5.83,-11.87 4.74,0 6.11,5.3 6.11,13.48 0,5.82 -1.09,11.69 -5.4,11.69zm18.04 3.28l21.1 0c0.27,-0.92 0.33,-1.32 0.33,-2.13l-6.98 -1.73c-0.49,-0.12 -0.71,-0.35 -0.71,-1.38l-0.16 -10.6 0 -8.41c0.93,-0.52 2.67,-1.04 5.02,-1.04 1.47,0 3.76,0.4 5.89,1.73l2.73 -6.8c-1.31,-0.98 -2.78,-1.73 -5.56,-1.73 -3.71,0 -6.76,3.17 -8.29,5.41l0 -3.23c0,-1.9 -1.53,-2.3 -2.73,-2.3 -3.38,0 -7.58,0.58 -10.69,1.21l0 2.88 4.52 0 0 12.27 -0.11 10.43c0,2.02 -0.6,2.48 -2.18,3l-2.4 0.81c0,0.4 0.11,0.92 0.22,1.61zm59.75 0.52c6,0 10.68,-3.05 13.3,-7.03l-0.93 -1.67c-3.98,0.92 -6.76,1.09 -8.72,1.09 -5.61,0 -9.32,-2.82 -9.92,-9.04l19.79 0 0 -1.21c0,-7.49 -4.14,-14.98 -13.03,-14.98 -9.65,0 -15.97,9.16 -15.97,18.03 0,9.68 5.29,14.8 15.48,14.8zm-6.38 -19.99c0.27,-5.93 2.18,-8.93 5.34,-8.93 3.16,0 5.07,3.51 5.07,8.93l-10.41 0zm58.38 20.22c0.82,0 1.64,-0.06 2.45,-0.17l8.89 8.12c2.4,1.9 4.58,2.82 6.81,2.82 2.51,0 5.94,-0.92 8.61,-3.28l-1.25 -4.49c-2.67,0.69 -5.4,0.92 -6.11,0.92 -2.07,0 -4.14,-0.63 -5.83,-1.61l-6.11 -3.57c9.05,-3.23 14.61,-12.21 14.61,-22.52 0,-12.21 -5.61,-20.04 -19.9,-20.04 -12.37,0 -22.24,10.6 -22.24,23.96 0,12.73 6.32,19.87 20.06,19.87zm0.71 -4.32c-6.05,0 -10.41,-5.93 -10.41,-17.8 0,-11.29 3.71,-17.51 10.85,-17.51 6.92,0 10.58,6.45 10.58,17.63 0,11.58 -3.54,17.68 -11.01,17.68zm37.56 4.15c3.87,0 6.98,-2.42 10.03,-6.05 0.11,3.28 1.53,5.87 4.8,5.87 4.14,0 6.38,-1.79 8.89,-3.46l-0.22 -1.61 -3.82 0 -0.33 -11 0 -12.67c0,-2.65 -1.8,-3.97 -4.31,-3.97 -2.73,0 -5.51,0.69 -8.67,1.73l0 2.48 3.87 0 0 12.38 -0.22 8.12c-1.91,0.69 -4.85,1.21 -6.98,1.21 -2.07,0 -2.78,-1.44 -2.78,-4.61l0 -17.45c0,-2.59 -1.64,-3.86 -4.25,-3.86 -2.73,0 -5.67,0.69 -9.32,1.73l0 2.48 4.47 0 0 18.49c0,5.41 0.22,10.2 8.83,10.2zm33.91 -0.06c4.36,0 7.41,-2.71 9.49,-5.64 0.33,4.03 1.91,5.64 6.05,5.64 2.24,0 5.02,-1.5 7.25,-3.69l-0.22 -1.5 -3.82 0 -0.38 -11.12 0 -7.03c0,-7.72 -5.89,-9.33 -10.74,-9.33 -5.67,0 -11.18,3.63 -13.03,5.53l0.93 2.19c3.43,-0.86 5.78,-1.21 7.63,-1.21 3.87,0 6.16,1.44 6.16,4.9l0 4.2 -4.91 0.58c-6,0.69 -11.99,2.53 -11.99,9.85 0,3.51 2.62,6.62 7.58,6.62zm4.91 -6.34c-1.8,0 -3.43,-1.04 -3.43,-3.34 0,-2.48 2.45,-3.63 5.02,-4.15l2.84 -0.58 0 6.97c-1.47,0.69 -2.73,1.09 -4.42,1.09zm20.66 5.82l17.28 0c0.22,-0.63 0.33,-1.44 0.33,-1.9l-3.6 -1.27c-0.76,-0.29 -0.87,-1.27 -0.87,-2.42l-0.05 -10.19 0 -31.22c0,-2.3 -1.09,-2.88 -2.89,-2.88 -2.67,0 -7.85,0.58 -10.68,1.32l0 3 4.42 0 0 29.78 -0.16 10.6c0,1.44 -0.33,2.07 -1.31,2.48l-2.67 1.04c0,0.52 0.05,0.98 0.22,1.67l0 0zm20.44 0l17.83 0c0.27,-0.81 0.33,-1.32 0.33,-1.96l-3.6 -1.09c-0.55,-0.17 -0.87,-0.81 -0.87,-2.59l-0.05 -10.14 0 -13.65c0,-2.3 -1.09,-2.76 -2.89,-2.76 -2.67,0 -7.36,0.4 -10.96,1.21l0 3.05 4.69 0 0 12.15 -0.16 10.6c0,1.44 -0.27,1.96 -1.31,2.25l-3.22 0.98c0,0.81 0.11,1.32 0.22,1.96zm8.78 -38.42c1.2,0 5.34,-4.72 5.34,-5.59 0,-1.15 -4.36,-5.59 -5.34,-5.59 -1.09,0 -5.23,4.26 -5.23,5.59 0,1.09 4.09,5.59 5.23,5.59l0 0zm23.66 38.99c3.71,0 6.27,-2.07 8.34,-4.72 0,2.19 1.09,4.72 3.93,4.72 4.74,0 6.98,-1.32 9.92,-3l-0.49 -2.13 -3.93 0 -0.16 -11.75 0 -30.07c0,-2.82 -0.82,-3.4 -3.27,-3.4 -2.67,0 -6.98,0.46 -10.58,1.15l0 3.23 4.74 0 0 13.88c-1.09,-0.11 -2.24,-0.17 -3.87,-0.17 -9.1,0 -16.19,6.57 -16.19,17.11 0,11.92 5.51,15.15 11.56,15.15zm4.25 -6.74c-3.54,0 -6.27,-2.88 -6.27,-9.96 0,-8.93 2.4,-11.63 7.03,-11.63 1.58,0 2.45,0.35 3.49,0.69l0 10.71 -0.22 9.45c-1.36,0.35 -2.4,0.75 -4.03,0.75zm27.97 6.68c4.36,0 7.41,-2.71 9.49,-5.64 0.33,4.03 1.91,5.64 6.05,5.64 2.24,0 5.02,-1.5 7.25,-3.69l-0.22 -1.5 -3.82 0 -0.38 -11.12 0 -7.03c0,-7.72 -5.89,-9.33 -10.74,-9.33 -5.67,0 -11.18,3.63 -13.03,5.53l0.93 2.19c3.43,-0.86 5.78,-1.21 7.63,-1.21 3.87,0 6.16,1.44 6.16,4.9l0 4.2 -4.91 0.58c-6,0.69 -11.99,2.53 -11.99,9.85 0,3.51 2.62,6.62 7.58,6.62zm4.91 -6.34c-1.8,0 -3.43,-1.04 -3.43,-3.34 0,-2.48 2.45,-3.63 5.02,-4.15l2.83 -0.58 0 6.97c-1.47,0.69 -2.73,1.09 -4.42,1.09zm32.16 6.39c3.71,0 6.27,-2.07 8.34,-4.72 0,2.19 1.09,4.72 3.93,4.72 4.74,0 6.98,-1.32 9.92,-3l-0.49 -2.13 -3.93 0 -0.16 -11.75 0 -30.07c0,-2.82 -0.82,-3.4 -3.27,-3.4 -2.67,0 -6.98,0.46 -10.58,1.15l0 3.23 4.74 0 0 13.88c-1.09,-0.11 -2.23,-0.17 -3.87,-0.17 -9.1,0 -16.19,6.57 -16.19,17.11 0,11.92 5.51,15.15 11.56,15.15zm4.25 -6.74c-3.54,0 -6.27,-2.88 -6.27,-9.96 0,-8.93 2.4,-11.63 7.03,-11.63 1.58,0 2.45,0.35 3.49,0.69l0 10.71 -0.22 9.45c-1.36,0.35 -2.4,0.75 -4.03,0.75zm36.14 6.68c6,0 10.68,-3.05 13.3,-7.03l-0.93 -1.67c-3.98,0.92 -6.76,1.09 -8.72,1.09 -5.61,0 -9.32,-2.82 -9.92,-9.04l19.79 0 0 -1.21c0,-7.49 -4.14,-14.98 -13.03,-14.98 -9.65,0 -15.97,9.16 -15.97,18.03 0,9.68 5.29,14.8 15.48,14.8zm-6.38 -19.99c0.27,-5.93 2.18,-8.93 5.34,-8.93 3.16,0 5.07,3.51 5.07,8.93l-10.41 0z"/>
 </g>
</svg>
